<svg width="25" height="25" viewBox="0 0 25 25" fill="none" xmlns="http://www.w3.org/2000/svg">
<path d="M13.4053 13.4897H11.4053V7.48969H13.4053M13.4053 17.4897H11.4053V15.4897H13.4053M12.4053 2.48969C11.0921 2.48969 9.79169 2.74834 8.57844 3.25089C7.36518 3.75344 6.26279 4.49003 5.33421 5.41862C3.45884 7.29398 2.40527 9.83752 2.40527 12.4897C2.40527 15.1418 3.45884 17.6854 5.33421 19.5608C6.26279 20.4893 7.36518 21.2259 8.57844 21.7285C9.79169 22.231 11.0921 22.4897 12.4053 22.4897C15.0574 22.4897 17.601 21.4361 19.4763 19.5608C21.3517 17.6854 22.4053 15.1418 22.4053 12.4897C22.4053 11.1765 22.1466 9.87611 21.6441 8.66285C21.1415 7.44959 20.4049 6.3472 19.4763 5.41862C18.5478 4.49003 17.4454 3.75344 16.2321 3.25089C15.0189 2.74834 13.7185 2.48969 12.4053 2.48969Z" fill="black"/>
</svg>
