<svg width="25" height="25" viewBox="0 0 25 25" fill="none" xmlns="http://www.w3.org/2000/svg">
<path d="M12.4053 9.48969C11.6096 9.48969 10.8466 9.80576 10.284 10.3684C9.72134 10.931 9.40527 11.694 9.40527 12.4897C9.40527 13.2853 9.72134 14.0484 10.284 14.611C10.8466 15.1736 11.6096 15.4897 12.4053 15.4897C13.2009 15.4897 13.964 15.1736 14.5266 14.611C15.0892 14.0484 15.4053 13.2853 15.4053 12.4897C15.4053 11.694 15.0892 10.931 14.5266 10.3684C13.964 9.80576 13.2009 9.48969 12.4053 9.48969ZM12.4053 17.4897C11.0792 17.4897 9.80742 16.9629 8.86974 16.0252C7.93206 15.0875 7.40527 13.8158 7.40527 12.4897C7.40527 11.1636 7.93206 9.89183 8.86974 8.95415C9.80742 8.01647 11.0792 7.48969 12.4053 7.48969C13.7314 7.48969 15.0031 8.01647 15.9408 8.95415C16.8785 9.89183 17.4053 11.1636 17.4053 12.4897C17.4053 13.8158 16.8785 15.0875 15.9408 16.0252C15.0031 16.9629 13.7314 17.4897 12.4053 17.4897ZM12.4053 4.98969C7.40527 4.98969 3.13527 8.09969 1.40527 12.4897C3.13527 16.8797 7.40527 19.9897 12.4053 19.9897C17.4053 19.9897 21.6753 16.8797 23.4053 12.4897C21.6753 8.09969 17.4053 4.98969 12.4053 4.98969Z" fill="black"/>
</svg>
